<?xml version="1.0" encoding="utf-8"?>
<!-- Generator: Adobe Illustrator 16.0.0, SVG Export Plug-In . SVG Version: 6.00 Build 0)  -->
<!DOCTYPE svg PUBLIC "-//W3C//DTD SVG 1.1//EN" "http://www.w3.org/Graphics/SVG/1.1/DTD/svg11.dtd">
<svg version="1.1" id="Layer_1" xmlns="http://www.w3.org/2000/svg" xmlns:xlink="http://www.w3.org/1999/xlink" x="0px" y="0px"
	 width="164.229px" height="50.727px" viewBox="0 0 164.229 50.727" enable-background="new 0 0 164.229 50.727"
	 xml:space="preserve">
<g>
	<g>
		<path fill-rule="evenodd" clip-rule="evenodd" fill="#FFFFFF" d="M9.329,41.462H7.25l-1.358,5.95
			c-0.247,1.09-0.968,1.729-2.367,1.729c-0.947,0-1.606-0.557-1.317-1.811l1.337-5.868H1.465l-1.358,5.991
			c-0.186,0.905-0.145,1.626,0.247,2.182c0.659,0.906,1.956,1.092,2.841,1.092c2.449,0,4.24-1.009,4.775-3.396L9.329,41.462
			L9.329,41.462z"/>
		<polygon fill-rule="evenodd" clip-rule="evenodd" fill="#FFFFFF" points="15.524,47.74 15.483,47.74 13.075,41.462 10.934,41.462 
			8.855,50.499 10.749,50.499 12.23,44.056 12.251,44.056 14.763,50.499 16.78,50.499 18.859,41.462 16.965,41.462 15.524,47.74 		
			"/>
		<polygon fill-rule="evenodd" clip-rule="evenodd" fill="#FFFFFF" points="22.379,41.462 20.362,41.462 18.282,50.499 
			20.321,50.499 22.379,41.462 		"/>
		<polygon fill-rule="evenodd" clip-rule="evenodd" fill="#FFFFFF" points="25.94,48.296 25.92,48.296 25.405,41.462 23.223,41.462 
			24.438,50.499 26.373,50.499 31.745,41.462 29.625,41.462 25.94,48.296 		"/>
		<polygon fill-rule="evenodd" clip-rule="evenodd" fill="#FFFFFF" points="39.897,41.462 32.754,41.462 30.674,50.499 
			38.064,50.499 38.435,48.895 33.042,48.895 33.577,46.547 38.312,46.547 38.682,44.962 33.948,44.962 34.38,43.048 39.547,43.048 
			39.897,41.462 		"/>
		<path fill-rule="evenodd" clip-rule="evenodd" fill="#FFFFFF" d="M39.423,50.499h1.997l0.824-3.54h2.099
			c1.503,0,1.461,0.474,1.193,1.708c-0.226,0.926-0.247,1.399-0.205,1.832h2.243l0.062-0.247c-0.392-0.144-0.33-0.473-0.021-1.791
			c0.391-1.688,0.021-1.975-0.721-2.305c1.05-0.288,1.771-1.153,1.997-2.142c0.185-0.781,0.124-2.553-2.47-2.553h-4.919
			L39.423,50.499L39.423,50.499z M42.573,45.436l0.555-2.409h2.553c1.194,0,1.256,0.7,1.153,1.173
			c-0.207,0.886-0.803,1.236-1.874,1.236H42.573L42.573,45.436z"/>
		<path fill-rule="evenodd" clip-rule="evenodd" fill="#FFFFFF" d="M49.057,47.721c-0.247,1.111-0.083,3.006,3.479,3.006
			c0.844,0,3.89-0.228,4.508-2.945c0.371-1.625-0.721-2.141-1.997-2.429l-2.243-0.556C52.412,44.715,51.836,44.57,52,43.87
			c0.185-0.822,1.152-1.09,1.935-1.09c1.77,0,1.708,0.946,1.688,1.358h1.935c0.247-1.112-0.144-2.924-3.108-2.924
			c-3.17,0-4.158,1.771-4.384,2.779c-0.453,1.997,0.988,2.326,2.47,2.655l1.008,0.227c0.968,0.227,1.667,0.412,1.502,1.132
			c-0.226,0.947-1.337,1.174-2.306,1.174c-1.77,0-1.831-0.968-1.729-1.461H49.057L49.057,47.721z"/>
		<polygon fill-rule="evenodd" clip-rule="evenodd" fill="#FFFFFF" points="61.613,41.462 59.596,41.462 57.517,50.499 
			59.555,50.499 61.613,41.462 		"/>
		<path fill-rule="evenodd" clip-rule="evenodd" fill="#FFFFFF" d="M61.16,50.499h4.22c3.21,0,4.672-2.799,5.126-4.734
			c0.39-1.709,0.308-4.303-2.986-4.303h-4.302L61.16,50.499L61.16,50.499z M64.866,43.026h1.956c0.865,0,2.182,0.207,1.564,2.882
			c-0.33,1.482-1.236,3.027-2.903,3.027h-1.976L64.866,43.026L64.866,43.026z"/>
		<path fill-rule="evenodd" clip-rule="evenodd" fill="#FFFFFF" d="M73.14,48.625h3.583l0.205,1.874h2.202l-1.357-9.037h-2.347
			l-5.538,9.037h2.142L73.14,48.625L73.14,48.625z M76.105,43.501h0.02l0.392,3.561h-2.47L76.105,43.501L76.105,43.501z"/>
		<path fill-rule="evenodd" clip-rule="evenodd" fill="#FFFFFF" d="M80.139,50.499h4.221c3.211,0,4.693-2.799,5.125-4.734
			c0.393-1.709,0.311-4.303-2.963-4.303h-4.304L80.139,50.499L80.139,50.499z M83.844,43.026h1.955c0.865,0,2.203,0.207,1.587,2.882
			c-0.35,1.482-1.256,3.027-2.902,3.027h-1.977L83.844,43.026L83.844,43.026z"/>
		<polygon fill-rule="evenodd" clip-rule="evenodd" fill="#FFFFFF" points="98.871,41.462 91.707,41.462 89.649,50.499 
			97.039,50.499 97.39,48.895 91.997,48.895 92.531,46.547 97.287,46.547 97.656,44.962 92.901,44.962 93.334,43.048 98.5,43.048 
			98.871,41.462 		"/>
		<path fill-rule="evenodd" clip-rule="evenodd" fill="#FFFFFF" d="M104.573,47.227h2.347c2.615,0,3.561-2.06,3.768-2.883
			c0.39-1.77-0.494-2.882-2.368-2.882h-4.446l-2.078,9.037h2.037L104.573,47.227L104.573,47.227z M104.944,45.683l0.597-2.656h1.625
			c1.256,0,1.689,0.351,1.502,1.235c-0.102,0.411-0.327,1.421-1.851,1.421H104.944L104.944,45.683z"/>
		<path fill-rule="evenodd" clip-rule="evenodd" fill="#FFFFFF" d="M112.046,48.625h3.581l0.206,1.874h2.203l-1.358-9.037h-2.348
			l-5.537,9.037h2.141L112.046,48.625L112.046,48.625z M115.01,43.501h0.021l0.391,3.561h-2.491L115.01,43.501L115.01,43.501z"/>
		<path fill-rule="evenodd" clip-rule="evenodd" fill="#FFFFFF" d="M128.904,41.462h-2.059l-1.379,5.95
			c-0.246,1.09-0.947,1.729-2.346,1.729c-0.948,0-1.607-0.557-1.318-1.811l1.337-5.868h-2.079l-1.378,5.991
			c-0.165,0.905-0.145,1.626,0.267,2.182c0.66,0.906,1.937,1.092,2.842,1.092c2.449,0,4.24-1.009,4.775-3.396L128.904,41.462
			L128.904,41.462z"/>
		<polygon fill-rule="evenodd" clip-rule="evenodd" fill="#FFFFFF" points="132.65,41.462 130.614,41.462 128.533,50.499 
			135.409,50.499 135.801,48.852 130.942,48.852 132.65,41.462 		"/>
		<polygon fill-rule="evenodd" clip-rule="evenodd" fill="#FFFFFF" points="140.473,41.462 138.436,41.462 136.377,50.499 
			138.395,50.499 140.473,41.462 		"/>
		<path fill-rule="evenodd" clip-rule="evenodd" fill="#FFFFFF" d="M140.143,47.721c-0.268,1.111-0.082,3.006,3.479,3.006
			c0.845,0,3.89-0.228,4.51-2.945c0.37-1.625-0.742-2.141-1.999-2.429l-2.242-0.556c-0.391-0.082-0.988-0.227-0.823-0.927
			c0.186-0.822,1.173-1.09,1.955-1.09c1.771,0,1.708,0.946,1.667,1.358h1.955c0.248-1.112-0.143-2.924-3.129-2.924
			c-3.148,0-4.137,1.771-4.383,2.779c-0.454,1.997,1.007,2.326,2.489,2.655l0.987,0.227c0.989,0.227,1.667,0.412,1.523,1.132
			c-0.227,0.947-1.357,1.174-2.305,1.174c-1.791,0-1.832-0.968-1.73-1.461H140.143L140.143,47.721z"/>
		<polygon fill-rule="evenodd" clip-rule="evenodd" fill="#FFFFFF" points="154.594,43.048 157.537,43.048 157.908,41.462 
			149.983,41.462 149.633,43.048 152.557,43.048 150.867,50.499 152.906,50.499 154.594,43.048 		"/>
		<path fill-rule="evenodd" clip-rule="evenodd" fill="#FFFFFF" d="M158.238,48.625h3.582l0.205,1.874h2.203l-1.359-9.037h-2.347
			l-5.538,9.037h2.142L158.238,48.625L158.238,48.625z M161.201,43.501h0.021l0.392,3.561h-2.471L161.201,43.501L161.201,43.501z"/>
	</g>
	<g>
		<path fill-rule="evenodd" clip-rule="evenodd" fill="#FFF100" d="M136.156,5.168l-3.605,7.48h8.918
			c0.771,0,1.252-0.125,1.918-0.52c0.625-0.375,0.959-0.709,1.271-1.375l1.167-2.418c0.354-0.708,0.187-1.333-0.208-2.001
			c-0.479-0.812-1.188-1.166-2.126-1.166H136.156L136.156,5.168z M126.384,0h30.173c1.313,0,2.146,0.584,2.979,1.584
			c1.377,1.688,0.918,3.625,0,5.583l-3.082,6.544c-0.688,1.48-1.084,2.417-2.334,3.479c-1.646,1.376-3.063,1.793-5.211,1.793
			h-19.441c-1.083,2.75-2.313,4.251-4.771,5.897c-2.209,1.459-3.834,2.104-6.48,2.104h-4.46L126.384,0L126.384,0z"/>
		<path fill="#FFF100" d="M136.156,5.168l-3.605,7.48h8.918c0.771,0,1.252-0.125,1.918-0.52c0.625-0.375,0.959-0.709,1.271-1.375
			l1.167-2.418c0.354-0.708,0.187-1.333-0.208-2.001c-0.479-0.812-1.188-1.166-2.126-1.166H136.156L136.156,5.168z M126.384,0
			h30.173c1.313,0,2.146,0.584,2.979,1.584c1.377,1.688,0.918,3.625,0,5.583l-3.082,6.544c-0.688,1.48-1.084,2.417-2.334,3.479
			c-1.646,1.376-3.063,1.793-5.211,1.793h-19.441c-1.083,2.75-2.313,4.251-4.771,5.897c-2.209,1.459-3.834,2.104-6.48,2.104h-4.46
			L126.384,0L126.384,0z"/>
		<path fill-rule="evenodd" clip-rule="evenodd" fill="#FFF100" d="M90.916,0.104h11.461l-8.813,18.984
			c-1.313,2.813-2.813,4.438-5.419,6.313c-1.583,1.168-6.125,2.522-9.981,1.688l-7.334-14.232l-2.856,6.23
			c-1.291,2.771-2.834,4.438-5.418,6.313c-1.604,1.168-6.147,2.522-10.001,1.688L65.306,0.104h11.482l7.855,13.191L90.916,0.104
			L90.916,0.104z"/>
		<path fill-rule="evenodd" clip-rule="evenodd" fill="#FFF100" d="M95.689,26.986L108.337,0h11.462l-8.814,18.984
			c-1.313,2.813-2.814,4.439-5.418,6.313C103.982,26.466,99.544,27.819,95.689,26.986L95.689,26.986z"/>
		<path fill-rule="evenodd" clip-rule="evenodd" fill="#FFF100" d="M33.549,0H21.546l-7.96,16.983
			c-1.229,2.563-1.292,4.834,0.729,7.273c2.251,2.687,6.898,3.792,11.691,3.792h8.709c4.376,0,7.252-0.813,10.628-3.584
			c2.083-1.731,3.105-3.043,4.25-5.48L58.409,0H46.072l-6.48,13.712c-1.792,4.313-2.751,5.272-8.481,5.272
			c-3.625,0-5.021-2.959-3.938-5.272L33.549,0L33.549,0z"/>
	</g>
</g>
</svg>
